<svg id="Capa_1" enable-background="new 0 0 512.258 512.258" height="512" viewBox="0 0 512.258 512.258" width="512" xmlns="http://www.w3.org/2000/svg"><g><g><path d="m228.642 359.397 231.831-231.831c21.529-20.654 21.531-57.833 0-78.488-21.639-21.641-56.85-21.641-78.489 0l-231.831 231.831z"/><path d="m195.547 169.926 11.394 11.393 21.212-21.213-11.393-11.393 29.699-29.698-119.015-119.015-80.61 80.609 119.015 119.015z"/><path d="m388.246 260.802-29.699 29.698-9.893-9.894-21.213 21.213 9.893 9.894-29.699 29.698 124.01 124.01 80.611-80.61z"/></g><g><path d="m234.047 512.213c-125.78 2.601-236.599-108.224-234-234h30c0 112.486 91.514 204 204 204z"/></g><g><path d="m234.047 431.017c-84.256 0-152.804-68.548-152.804-152.804h30c0 67.714 55.09 122.804 122.804 122.804z"/></g></g></svg>